ISO-10303-21;
HEADER;
/* Generated by software containing ST-Developer
 * from STEP Tools, Inc. (www.steptools.com) 
 */

FILE_DESCRIPTION(
/* description */ (''),
/* implementation_level */ '2;1');

FILE_NAME(
/* name */ 'battery_module_v1.step',
/* time_stamp */ '2026-09-01T00:27:56+02:00',
/* author */ (''),
/* organization */ (''),
/* preprocessor_version */ 'ST-DEVELOPER v20.1',
/* originating_system */ 'Autodesk Translation Framework v15.8.0.0',
/* authorisation */ '');

FILE_SCHEMA (('AUTOMOTIVE_DESIGN { 1 0 10303 214 3 1 1 }'));
ENDSEC;

DATA;
#10=MECHANICAL_DESIGN_GEOMETRIC_PRESENTATION_REPRESENTATION('',(#27,#28,
#29,#30,#31,#32,#33),#1101);
#11=SHAPE_REPRESENTATION_RELATIONSHIP('SRR','None',#1108,#12);
#12=ADVANCED_BREP_SHAPE_REPRESENTATION('',(#34,#35,#36,#37,#38,#39,#40),
#1100);
#13=CIRCLE('',#704,10.5);
#14=CIRCLE('',#705,10.5);
#15=CIRCLE('',#709,10.5);
#16=CIRCLE('',#710,10.5);
#17=CIRCLE('',#714,10.5);
#18=CIRCLE('',#715,10.5);
#19=CIRCLE('',#719,10.5);
#20=CIRCLE('',#720,10.5);
#21=CYLINDRICAL_SURFACE('',#703,10.5);
#22=CYLINDRICAL_SURFACE('',#708,10.5);
#23=CYLINDRICAL_SURFACE('',#713,10.5);
#24=CYLINDRICAL_SURFACE('',#718,10.5);
#25=FACE_BOUND('',#98,.T.);
#26=FACE_BOUND('',#100,.T.);
#27=STYLED_ITEM('',(#1117),#34);
#28=STYLED_ITEM('',(#1117),#35);
#29=STYLED_ITEM('',(#1117),#36);
#30=STYLED_ITEM('',(#1117),#37);
#31=STYLED_ITEM('',(#1117),#38);
#32=STYLED_ITEM('',(#1117),#39);
#33=STYLED_ITEM('',(#1117),#40);
#34=MANIFOLD_SOLID_BREP('Base plate',#667);
#35=MANIFOLD_SOLID_BREP('Wall Ring',#668);
#36=MANIFOLD_SOLID_BREP('Cell 1',#669);
#37=MANIFOLD_SOLID_BREP('Cell 2',#670);
#38=MANIFOLD_SOLID_BREP('Cell 3',#671);
#39=MANIFOLD_SOLID_BREP('Cell 4',#672);
#40=MANIFOLD_SOLID_BREP('Busbar',#673);
#41=FACE_OUTER_BOUND('',#83,.T.);
#42=FACE_OUTER_BOUND('',#84,.T.);
#43=FACE_OUTER_BOUND('',#85,.T.);
#44=FACE_OUTER_BOUND('',#86,.T.);
#45=FACE_OUTER_BOUND('',#87,.T.);
#46=FACE_OUTER_BOUND('',#88,.T.);
#47=FACE_OUTER_BOUND('',#89,.T.);
#48=FACE_OUTER_BOUND('',#90,.T.);
#49=FACE_OUTER_BOUND('',#91,.T.);
#50=FACE_OUTER_BOUND('',#92,.T.);
#51=FACE_OUTER_BOUND('',#93,.T.);
#52=FACE_OUTER_BOUND('',#94,.T.);
#53=FACE_OUTER_BOUND('',#95,.T.);
#54=FACE_OUTER_BOUND('',#96,.T.);
#55=FACE_OUTER_BOUND('',#97,.T.);
#56=FACE_OUTER_BOUND('',#99,.T.);
#57=FACE_OUTER_BOUND('',#101,.T.);
#58=FACE_OUTER_BOUND('',#102,.T.);
#59=FACE_OUTER_BOUND('',#103,.T.);
#60=FACE_OUTER_BOUND('',#104,.T.);
#61=FACE_OUTER_BOUND('',#105,.T.);
#62=FACE_OUTER_BOUND('',#106,.T.);
#63=FACE_OUTER_BOUND('',#107,.T.);
#64=FACE_OUTER_BOUND('',#108,.T.);
#65=FACE_OUTER_BOUND('',#109,.T.);
#66=FACE_OUTER_BOUND('',#110,.T.);
#67=FACE_OUTER_BOUND('',#111,.T.);
#68=FACE_OUTER_BOUND('',#112,.T.);
#69=FACE_OUTER_BOUND('',#113,.T.);
#70=FACE_OUTER_BOUND('',#114,.T.);
#71=FACE_OUTER_BOUND('',#115,.T.);
#72=FACE_OUTER_BOUND('',#116,.T.);
#73=FACE_OUTER_BOUND('',#117,.T.);
#74=FACE_OUTER_BOUND('',#118,.T.);
#75=FACE_OUTER_BOUND('',#119,.T.);
#76=FACE_OUTER_BOUND('',#120,.T.);
#77=FACE_OUTER_BOUND('',#121,.T.);
#78=FACE_OUTER_BOUND('',#122,.T.);
#79=FACE_OUTER_BOUND('',#123,.T.);
#80=FACE_OUTER_BOUND('',#124,.T.);
#81=FACE_OUTER_BOUND('',#125,.T.);
#82=FACE_OUTER_BOUND('',#126,.T.);
#83=EDGE_LOOP('',(#419,#420,#421,#422));
#84=EDGE_LOOP('',(#423,#424,#425,#426));
#85=EDGE_LOOP('',(#427,#428,#429,#430));
#86=EDGE_LOOP('',(#431,#432,#433,#434));
#87=EDGE_LOOP('',(#435,#436,#437,#438));
#88=EDGE_LOOP('',(#439,#440,#441,#442));
#89=EDGE_LOOP('',(#443,#444,#445,#446));
#90=EDGE_LOOP('',(#447,#448,#449,#450));
#91=EDGE_LOOP('',(#451,#452,#453,#454));
#92=EDGE_LOOP('',(#455,#456,#457,#458));
#93=EDGE_LOOP('',(#459,#460,#461,#462));
#94=EDGE_LOOP('',(#463,#464,#465,#466));
#95=EDGE_LOOP('',(#467,#468,#469,#470));
#96=EDGE_LOOP('',(#471,#472,#473,#474));
#97=EDGE_LOOP('',(#475,#476,#477,#478));
#98=EDGE_LOOP('',(#479,#480,#481,#482));
#99=EDGE_LOOP('',(#483,#484,#485,#486));
#100=EDGE_LOOP('',(#487,#488,#489,#490));
#101=EDGE_LOOP('',(#491,#492,#493,#494));
#102=EDGE_LOOP('',(#495));
#103=EDGE_LOOP('',(#496));
#104=EDGE_LOOP('',(#497,#498,#499,#500));
#105=EDGE_LOOP('',(#501));
#106=EDGE_LOOP('',(#502));
#107=EDGE_LOOP('',(#503,#504,#505,#506));
#108=EDGE_LOOP('',(#507));
#109=EDGE_LOOP('',(#508));
#110=EDGE_LOOP('',(#509,#510,#511,#512));
#111=EDGE_LOOP('',(#513));
#112=EDGE_LOOP('',(#514));
#113=EDGE_LOOP('',(#515,#516,#517,#518));
#114=EDGE_LOOP('',(#519,#520,#521,#522));
#115=EDGE_LOOP('',(#523,#524,#525,#526));
#116=EDGE_LOOP('',(#527,#528,#529,#530));
#117=EDGE_LOOP('',(#531,#532,#533,#534));
#118=EDGE_LOOP('',(#535,#536,#537,#538));
#119=EDGE_LOOP('',(#539,#540,#541,#542));
#120=EDGE_LOOP('',(#543,#544,#545,#546));
#121=EDGE_LOOP('',(#547,#548,#549,#550));
#122=EDGE_LOOP('',(#551,#552,#553,#554));
#123=EDGE_LOOP('',(#555,#556,#557,#558));
#124=EDGE_LOOP('',(#559,#560,#561,#562));
#125=EDGE_LOOP('',(#563,#564,#565,#566,#567,#568,#569,#570,#571,#572,#573,
#574));
#126=EDGE_LOOP('',(#575,#576,#577,#578,#579,#580,#581,#582,#583,#584,#585,
#586));
#127=LINE('',#919,#203);
#128=LINE('',#921,#204);
#129=LINE('',#923,#205);
#130=LINE('',#924,#206);
#131=LINE('',#927,#207);
#132=LINE('',#929,#208);
#133=LINE('',#930,#209);
#134=LINE('',#933,#210);
#135=LINE('',#935,#211);
#136=LINE('',#936,#212);
#137=LINE('',#938,#213);
#138=LINE('',#939,#214);
#139=LINE('',#945,#215);
#140=LINE('',#947,#216);
#141=LINE('',#949,#217);
#142=LINE('',#950,#218);
#143=LINE('',#953,#219);
#144=LINE('',#955,#220);
#145=LINE('',#956,#221);
#146=LINE('',#959,#222);
#147=LINE('',#961,#223);
#148=LINE('',#962,#224);
#149=LINE('',#964,#225);
#150=LINE('',#965,#226);
#151=LINE('',#969,#227);
#152=LINE('',#971,#228);
#153=LINE('',#973,#229);
#154=LINE('',#974,#230);
#155=LINE('',#977,#231);
#156=LINE('',#979,#232);
#157=LINE('',#980,#233);
#158=LINE('',#983,#234);
#159=LINE('',#985,#235);
#160=LINE('',#986,#236);
#161=LINE('',#988,#237);
#162=LINE('',#989,#238);
#163=LINE('',#996,#239);
#164=LINE('',#1004,#240);
#165=LINE('',#1012,#241);
#166=LINE('',#1020,#242);
#167=LINE('',#1027,#243);
#168=LINE('',#1029,#244);
#169=LINE('',#1031,#245);
#170=LINE('',#1032,#246);
#171=LINE('',#1035,#247);
#172=LINE('',#1037,#248);
#173=LINE('',#1038,#249);
#174=LINE('',#1041,#250);
#175=LINE('',#1043,#251);
#176=LINE('',#1044,#252);
#177=LINE('',#1047,#253);
#178=LINE('',#1049,#254);
#179=LINE('',#1050,#255);
#180=LINE('',#1053,#256);
#181=LINE('',#1055,#257);
#182=LINE('',#1056,#258);
#183=LINE('',#1059,#259);
#184=LINE('',#1061,#260);
#185=LINE('',#1062,#261);
#186=LINE('',#1065,#262);
#187=LINE('',#1067,#263);
#188=LINE('',#1068,#264);
#189=LINE('',#1071,#265);
#190=LINE('',#1073,#266);
#191=LINE('',#1074,#267);
#192=LINE('',#1077,#268);
#193=LINE('',#1079,#269);
#194=LINE('',#1080,#270);
#195=LINE('',#1083,#271);
#196=LINE('',#1085,#272);
#197=LINE('',#1086,#273);
#198=LINE('',#1089,#274);
#199=LINE('',#1091,#275);
#200=LINE('',#1092,#276);
#201=LINE('',#1094,#277);
#202=LINE('',#1095,#278);
#203=VECTOR('',#741,10.);
#204=VECTOR('',#742,10.);
#205=VECTOR('',#743,10.);
#206=VECTOR('',#744,10.);
#207=VECTOR('',#747,10.);
#208=VECTOR('',#748,10.);
#209=VECTOR('',#749,10.);
#210=VECTOR('',#752,10.);
#211=VECTOR('',#753,10.);
#212=VECTOR('',#754,10.);
#213=VECTOR('',#757,10.);
#214=VECTOR('',#758,10.);
#215=VECTOR('',#765,10.);
#216=VECTOR('',#766,10.);
#217=VECTOR('',#767,10.);
#218=VECTOR('',#768,10.);
#219=VECTOR('',#771,10.);
#220=VECTOR('',#772,10.);
#221=VECTOR('',#773,10.);
#222=VECTOR('',#776,10.);
#223=VECTOR('',#777,10.);
#224=VECTOR('',#778,10.);
#225=VECTOR('',#781,10.);
#226=VECTOR('',#782,10.);
#227=VECTOR('',#785,10.);
#228=VECTOR('',#786,10.);
#229=VECTOR('',#787,10.);
#230=VECTOR('',#788,10.);
#231=VECTOR('',#791,10.);
#232=VECTOR('',#792,10.);
#233=VECTOR('',#793,10.);
#234=VECTOR('',#796,10.);
#235=VECTOR('',#797,10.);
#236=VECTOR('',#798,10.);
#237=VECTOR('',#801,10.);
#238=VECTOR('',#802,10.);
#239=VECTOR('',#811,10.5);
#240=VECTOR('',#822,10.5);
#241=VECTOR('',#833,10.5);
#242=VECTOR('',#844,10.5);
#243=VECTOR('',#853,10.);
#244=VECTOR('',#854,10.);
#245=VECTOR('',#855,10.);
#246=VECTOR('',#856,10.);
#247=VECTOR('',#859,10.);
#248=VECTOR('',#860,10.);
#249=VECTOR('',#861,10.);
#250=VECTOR('',#864,10.);
#251=VECTOR('',#865,10.);
#252=VECTOR('',#866,10.);
#253=VECTOR('',#869,10.);
#254=VECTOR('',#870,10.);
#255=VECTOR('',#871,10.);
#256=VECTOR('',#874,10.);
#257=VECTOR('',#875,10.);
#258=VECTOR('',#876,10.);
#259=VECTOR('',#879,10.);
#260=VECTOR('',#880,10.);
#261=VECTOR('',#881,10.);
#262=VECTOR('',#884,10.);
#263=VECTOR('',#885,10.);
#264=VECTOR('',#886,10.);
#265=VECTOR('',#889,10.);
#266=VECTOR('',#890,10.);
#267=VECTOR('',#891,10.);
#268=VECTOR('',#894,10.);
#269=VECTOR('',#895,10.);
#270=VECTOR('',#896,10.);
#271=VECTOR('',#899,10.);
#272=VECTOR('',#900,10.);
#273=VECTOR('',#901,10.);
#274=VECTOR('',#904,10.);
#275=VECTOR('',#905,10.);
#276=VECTOR('',#906,10.);
#277=VECTOR('',#909,10.);
#278=VECTOR('',#910,10.);
#279=VERTEX_POINT('',#917);
#280=VERTEX_POINT('',#918);
#281=VERTEX_POINT('',#920);
#282=VERTEX_POINT('',#922);
#283=VERTEX_POINT('',#926);
#284=VERTEX_POINT('',#928);
#285=VERTEX_POINT('',#932);
#286=VERTEX_POINT('',#934);
#287=VERTEX_POINT('',#943);
#288=VERTEX_POINT('',#944);
#289=VERTEX_POINT('',#946);
#290=VERTEX_POINT('',#948);
#291=VERTEX_POINT('',#952);
#292=VERTEX_POINT('',#954);
#293=VERTEX_POINT('',#958);
#294=VERTEX_POINT('',#960);
#295=VERTEX_POINT('',#967);
#296=VERTEX_POINT('',#968);
#297=VERTEX_POINT('',#970);
#298=VERTEX_POINT('',#972);
#299=VERTEX_POINT('',#976);
#300=VERTEX_POINT('',#978);
#301=VERTEX_POINT('',#982);
#302=VERTEX_POINT('',#984);
#303=VERTEX_POINT('',#993);
#304=VERTEX_POINT('',#995);
#305=VERTEX_POINT('',#1001);
#306=VERTEX_POINT('',#1003);
#307=VERTEX_POINT('',#1009);
#308=VERTEX_POINT('',#1011);
#309=VERTEX_POINT('',#1017);
#310=VERTEX_POINT('',#1019);
#311=VERTEX_POINT('',#1025);
#312=VERTEX_POINT('',#1026);
#313=VERTEX_POINT('',#1028);
#314=VERTEX_POINT('',#1030);
#315=VERTEX_POINT('',#1034);
#316=VERTEX_POINT('',#1036);
#317=VERTEX_POINT('',#1040);
#318=VERTEX_POINT('',#1042);
#319=VERTEX_POINT('',#1046);
#320=VERTEX_POINT('',#1048);
#321=VERTEX_POINT('',#1052);
#322=VERTEX_POINT('',#1054);
#323=VERTEX_POINT('',#1058);
#324=VERTEX_POINT('',#1060);
#325=VERTEX_POINT('',#1064);
#326=VERTEX_POINT('',#1066);
#327=VERTEX_POINT('',#1070);
#328=VERTEX_POINT('',#1072);
#329=VERTEX_POINT('',#1076);
#330=VERTEX_POINT('',#1078);
#331=VERTEX_POINT('',#1082);
#332=VERTEX_POINT('',#1084);
#333=VERTEX_POINT('',#1088);
#334=VERTEX_POINT('',#1090);
#335=EDGE_CURVE('',#279,#280,#127,.T.);
#336=EDGE_CURVE('',#280,#281,#128,.T.);
#337=EDGE_CURVE('',#282,#281,#129,.T.);
#338=EDGE_CURVE('',#279,#282,#130,.T.);
#339=EDGE_CURVE('',#283,#279,#131,.T.);
#340=EDGE_CURVE('',#284,#282,#132,.T.);
#341=EDGE_CURVE('',#283,#284,#133,.T.);
#342=EDGE_CURVE('',#285,#283,#134,.T.);
#343=EDGE_CURVE('',#286,#284,#135,.T.);
#344=EDGE_CURVE('',#285,#286,#136,.T.);
#345=EDGE_CURVE('',#280,#285,#137,.T.);
#346=EDGE_CURVE('',#281,#286,#138,.T.);
#347=EDGE_CURVE('',#287,#288,#139,.T.);
#348=EDGE_CURVE('',#288,#289,#140,.T.);
#349=EDGE_CURVE('',#290,#289,#141,.T.);
#350=EDGE_CURVE('',#287,#290,#142,.T.);
#351=EDGE_CURVE('',#291,#287,#143,.T.);
#352=EDGE_CURVE('',#292,#290,#144,.T.);
#353=EDGE_CURVE('',#291,#292,#145,.T.);
#354=EDGE_CURVE('',#293,#291,#146,.T.);
#355=EDGE_CURVE('',#294,#292,#147,.T.);
#356=EDGE_CURVE('',#293,#294,#148,.T.);
#357=EDGE_CURVE('',#288,#293,#149,.T.);
#358=EDGE_CURVE('',#289,#294,#150,.T.);
#359=EDGE_CURVE('',#295,#296,#151,.T.);
#360=EDGE_CURVE('',#296,#297,#152,.T.);
#361=EDGE_CURVE('',#298,#297,#153,.T.);
#362=EDGE_CURVE('',#295,#298,#154,.T.);
#363=EDGE_CURVE('',#299,#295,#155,.T.);
#364=EDGE_CURVE('',#300,#298,#156,.T.);
#365=EDGE_CURVE('',#299,#300,#157,.T.);
#366=EDGE_CURVE('',#301,#299,#158,.T.);
#367=EDGE_CURVE('',#302,#300,#159,.T.);
#368=EDGE_CURVE('',#301,#302,#160,.T.);
#369=EDGE_CURVE('',#296,#301,#161,.T.);
#370=EDGE_CURVE('',#297,#302,#162,.T.);
#371=EDGE_CURVE('',#303,#303,#13,.T.);
#372=EDGE_CURVE('',#303,#304,#163,.T.);
#373=EDGE_CURVE('',#304,#304,#14,.T.);
#374=EDGE_CURVE('',#305,#305,#15,.T.);
#375=EDGE_CURVE('',#305,#306,#164,.T.);
#376=EDGE_CURVE('',#306,#306,#16,.T.);
#377=EDGE_CURVE('',#307,#307,#17,.T.);
#378=EDGE_CURVE('',#307,#308,#165,.T.);
#379=EDGE_CURVE('',#308,#308,#18,.T.);
#380=EDGE_CURVE('',#309,#309,#19,.T.);
#381=EDGE_CURVE('',#309,#310,#166,.T.);
#382=EDGE_CURVE('',#310,#310,#20,.T.);
#383=EDGE_CURVE('',#311,#312,#167,.T.);
#384=EDGE_CURVE('',#311,#313,#168,.T.);
#385=EDGE_CURVE('',#314,#313,#169,.T.);
#386=EDGE_CURVE('',#312,#314,#170,.T.);
#387=EDGE_CURVE('',#312,#315,#171,.T.);
#388=EDGE_CURVE('',#316,#314,#172,.T.);
#389=EDGE_CURVE('',#315,#316,#173,.T.);
#390=EDGE_CURVE('',#315,#317,#174,.T.);
#391=EDGE_CURVE('',#318,#316,#175,.T.);
#392=EDGE_CURVE('',#317,#318,#176,.T.);
#393=EDGE_CURVE('',#319,#317,#177,.T.);
#394=EDGE_CURVE('',#320,#318,#178,.T.);
#395=EDGE_CURVE('',#319,#320,#179,.T.);
#396=EDGE_CURVE('',#321,#319,#180,.T.);
#397=EDGE_CURVE('',#322,#320,#181,.T.);
#398=EDGE_CURVE('',#321,#322,#182,.T.);
#399=EDGE_CURVE('',#323,#321,#183,.T.);
#400=EDGE_CURVE('',#324,#322,#184,.T.);
#401=EDGE_CURVE('',#323,#324,#185,.T.);
#402=EDGE_CURVE('',#323,#325,#186,.T.);
#403=EDGE_CURVE('',#326,#324,#187,.T.);
#404=EDGE_CURVE('',#325,#326,#188,.T.);
#405=EDGE_CURVE('',#325,#327,#189,.T.);
#406=EDGE_CURVE('',#328,#326,#190,.T.);
#407=EDGE_CURVE('',#327,#328,#191,.T.);
#408=EDGE_CURVE('',#327,#329,#192,.T.);
#409=EDGE_CURVE('',#330,#328,#193,.T.);
#410=EDGE_CURVE('',#329,#330,#194,.T.);
#411=EDGE_CURVE('',#331,#329,#195,.T.);
#412=EDGE_CURVE('',#332,#330,#196,.T.);
#413=EDGE_CURVE('',#331,#332,#197,.T.);
#414=EDGE_CURVE('',#333,#331,#198,.T.);
#415=EDGE_CURVE('',#334,#332,#199,.T.);
#416=EDGE_CURVE('',#333,#334,#200,.T.);
#417=EDGE_CURVE('',#311,#333,#201,.T.);
#418=EDGE_CURVE('',#313,#334,#202,.T.);
#419=ORIENTED_EDGE('',*,*,#335,.T.);
#420=ORIENTED_EDGE('',*,*,#336,.T.);
#421=ORIENTED_EDGE('',*,*,#337,.F.);
#422=ORIENTED_EDGE('',*,*,#338,.F.);
#423=ORIENTED_EDGE('',*,*,#339,.T.);
#424=ORIENTED_EDGE('',*,*,#338,.T.);
#425=ORIENTED_EDGE('',*,*,#340,.F.);
#426=ORIENTED_EDGE('',*,*,#341,.F.);
#427=ORIENTED_EDGE('',*,*,#342,.T.);
#428=ORIENTED_EDGE('',*,*,#341,.T.);
#429=ORIENTED_EDGE('',*,*,#343,.F.);
#430=ORIENTED_EDGE('',*,*,#344,.F.);
#431=ORIENTED_EDGE('',*,*,#345,.T.);
#432=ORIENTED_EDGE('',*,*,#344,.T.);
#433=ORIENTED_EDGE('',*,*,#346,.F.);
#434=ORIENTED_EDGE('',*,*,#336,.F.);
#435=ORIENTED_EDGE('',*,*,#346,.T.);
#436=ORIENTED_EDGE('',*,*,#343,.T.);
#437=ORIENTED_EDGE('',*,*,#340,.T.);
#438=ORIENTED_EDGE('',*,*,#337,.T.);
#439=ORIENTED_EDGE('',*,*,#345,.F.);
#440=ORIENTED_EDGE('',*,*,#335,.F.);
#441=ORIENTED_EDGE('',*,*,#339,.F.);
#442=ORIENTED_EDGE('',*,*,#342,.F.);
#443=ORIENTED_EDGE('',*,*,#347,.T.);
#444=ORIENTED_EDGE('',*,*,#348,.T.);
#445=ORIENTED_EDGE('',*,*,#349,.F.);
#446=ORIENTED_EDGE('',*,*,#350,.F.);
#447=ORIENTED_EDGE('',*,*,#351,.T.);
#448=ORIENTED_EDGE('',*,*,#350,.T.);
#449=ORIENTED_EDGE('',*,*,#352,.F.);
#450=ORIENTED_EDGE('',*,*,#353,.F.);
#451=ORIENTED_EDGE('',*,*,#354,.T.);
#452=ORIENTED_EDGE('',*,*,#353,.T.);
#453=ORIENTED_EDGE('',*,*,#355,.F.);
#454=ORIENTED_EDGE('',*,*,#356,.F.);
#455=ORIENTED_EDGE('',*,*,#357,.T.);
#456=ORIENTED_EDGE('',*,*,#356,.T.);
#457=ORIENTED_EDGE('',*,*,#358,.F.);
#458=ORIENTED_EDGE('',*,*,#348,.F.);
#459=ORIENTED_EDGE('',*,*,#359,.T.);
#460=ORIENTED_EDGE('',*,*,#360,.T.);
#461=ORIENTED_EDGE('',*,*,#361,.F.);
#462=ORIENTED_EDGE('',*,*,#362,.F.);
#463=ORIENTED_EDGE('',*,*,#363,.T.);
#464=ORIENTED_EDGE('',*,*,#362,.T.);
#465=ORIENTED_EDGE('',*,*,#364,.F.);
#466=ORIENTED_EDGE('',*,*,#365,.F.);
#467=ORIENTED_EDGE('',*,*,#366,.T.);
#468=ORIENTED_EDGE('',*,*,#365,.T.);
#469=ORIENTED_EDGE('',*,*,#367,.F.);
#470=ORIENTED_EDGE('',*,*,#368,.F.);
#471=ORIENTED_EDGE('',*,*,#369,.T.);
#472=ORIENTED_EDGE('',*,*,#368,.T.);
#473=ORIENTED_EDGE('',*,*,#370,.F.);
#474=ORIENTED_EDGE('',*,*,#360,.F.);
#475=ORIENTED_EDGE('',*,*,#370,.T.);
#476=ORIENTED_EDGE('',*,*,#367,.T.);
#477=ORIENTED_EDGE('',*,*,#364,.T.);
#478=ORIENTED_EDGE('',*,*,#361,.T.);
#479=ORIENTED_EDGE('',*,*,#358,.T.);
#480=ORIENTED_EDGE('',*,*,#355,.T.);
#481=ORIENTED_EDGE('',*,*,#352,.T.);
#482=ORIENTED_EDGE('',*,*,#349,.T.);
#483=ORIENTED_EDGE('',*,*,#369,.F.);
#484=ORIENTED_EDGE('',*,*,#359,.F.);
#485=ORIENTED_EDGE('',*,*,#363,.F.);
#486=ORIENTED_EDGE('',*,*,#366,.F.);
#487=ORIENTED_EDGE('',*,*,#357,.F.);
#488=ORIENTED_EDGE('',*,*,#347,.F.);
#489=ORIENTED_EDGE('',*,*,#351,.F.);
#490=ORIENTED_EDGE('',*,*,#354,.F.);
#491=ORIENTED_EDGE('',*,*,#371,.F.);
#492=ORIENTED_EDGE('',*,*,#372,.T.);
#493=ORIENTED_EDGE('',*,*,#373,.T.);
#494=ORIENTED_EDGE('',*,*,#372,.F.);
#495=ORIENTED_EDGE('',*,*,#371,.T.);
#496=ORIENTED_EDGE('',*,*,#373,.F.);
#497=ORIENTED_EDGE('',*,*,#374,.F.);
#498=ORIENTED_EDGE('',*,*,#375,.T.);
#499=ORIENTED_EDGE('',*,*,#376,.T.);
#500=ORIENTED_EDGE('',*,*,#375,.F.);
#501=ORIENTED_EDGE('',*,*,#374,.T.);
#502=ORIENTED_EDGE('',*,*,#376,.F.);
#503=ORIENTED_EDGE('',*,*,#377,.F.);
#504=ORIENTED_EDGE('',*,*,#378,.T.);
#505=ORIENTED_EDGE('',*,*,#379,.T.);
#506=ORIENTED_EDGE('',*,*,#378,.F.);
#507=ORIENTED_EDGE('',*,*,#377,.T.);
#508=ORIENTED_EDGE('',*,*,#379,.F.);
#509=ORIENTED_EDGE('',*,*,#380,.F.);
#510=ORIENTED_EDGE('',*,*,#381,.T.);
#511=ORIENTED_EDGE('',*,*,#382,.T.);
#512=ORIENTED_EDGE('',*,*,#381,.F.);
#513=ORIENTED_EDGE('',*,*,#380,.T.);
#514=ORIENTED_EDGE('',*,*,#382,.F.);
#515=ORIENTED_EDGE('',*,*,#383,.F.);
#516=ORIENTED_EDGE('',*,*,#384,.T.);
#517=ORIENTED_EDGE('',*,*,#385,.F.);
#518=ORIENTED_EDGE('',*,*,#386,.F.);
#519=ORIENTED_EDGE('',*,*,#387,.F.);
#520=ORIENTED_EDGE('',*,*,#386,.T.);
#521=ORIENTED_EDGE('',*,*,#388,.F.);
#522=ORIENTED_EDGE('',*,*,#389,.F.);
#523=ORIENTED_EDGE('',*,*,#390,.F.);
#524=ORIENTED_EDGE('',*,*,#389,.T.);
#525=ORIENTED_EDGE('',*,*,#391,.F.);
#526=ORIENTED_EDGE('',*,*,#392,.F.);
#527=ORIENTED_EDGE('',*,*,#393,.T.);
#528=ORIENTED_EDGE('',*,*,#392,.T.);
#529=ORIENTED_EDGE('',*,*,#394,.F.);
#530=ORIENTED_EDGE('',*,*,#395,.F.);
#531=ORIENTED_EDGE('',*,*,#396,.T.);
#532=ORIENTED_EDGE('',*,*,#395,.T.);
#533=ORIENTED_EDGE('',*,*,#397,.F.);
#534=ORIENTED_EDGE('',*,*,#398,.F.);
#535=ORIENTED_EDGE('',*,*,#399,.T.);
#536=ORIENTED_EDGE('',*,*,#398,.T.);
#537=ORIENTED_EDGE('',*,*,#400,.F.);
#538=ORIENTED_EDGE('',*,*,#401,.F.);
#539=ORIENTED_EDGE('',*,*,#402,.F.);
#540=ORIENTED_EDGE('',*,*,#401,.T.);
#541=ORIENTED_EDGE('',*,*,#403,.F.);
#542=ORIENTED_EDGE('',*,*,#404,.F.);
#543=ORIENTED_EDGE('',*,*,#405,.F.);
#544=ORIENTED_EDGE('',*,*,#404,.T.);
#545=ORIENTED_EDGE('',*,*,#406,.F.);
#546=ORIENTED_EDGE('',*,*,#407,.F.);
#547=ORIENTED_EDGE('',*,*,#408,.F.);
#548=ORIENTED_EDGE('',*,*,#407,.T.);
#549=ORIENTED_EDGE('',*,*,#409,.F.);
#550=ORIENTED_EDGE('',*,*,#410,.F.);
#551=ORIENTED_EDGE('',*,*,#411,.T.);
#552=ORIENTED_EDGE('',*,*,#410,.T.);
#553=ORIENTED_EDGE('',*,*,#412,.F.);
#554=ORIENTED_EDGE('',*,*,#413,.F.);
#555=ORIENTED_EDGE('',*,*,#414,.T.);
#556=ORIENTED_EDGE('',*,*,#413,.T.);
#557=ORIENTED_EDGE('',*,*,#415,.F.);
#558=ORIENTED_EDGE('',*,*,#416,.F.);
#559=ORIENTED_EDGE('',*,*,#417,.T.);
#560=ORIENTED_EDGE('',*,*,#416,.T.);
#561=ORIENTED_EDGE('',*,*,#418,.F.);
#562=ORIENTED_EDGE('',*,*,#384,.F.);
#563=ORIENTED_EDGE('',*,*,#418,.T.);
#564=ORIENTED_EDGE('',*,*,#415,.T.);
#565=ORIENTED_EDGE('',*,*,#412,.T.);
#566=ORIENTED_EDGE('',*,*,#409,.T.);
#567=ORIENTED_EDGE('',*,*,#406,.T.);
#568=ORIENTED_EDGE('',*,*,#403,.T.);
#569=ORIENTED_EDGE('',*,*,#400,.T.);
#570=ORIENTED_EDGE('',*,*,#397,.T.);
#571=ORIENTED_EDGE('',*,*,#394,.T.);
#572=ORIENTED_EDGE('',*,*,#391,.T.);
#573=ORIENTED_EDGE('',*,*,#388,.T.);
#574=ORIENTED_EDGE('',*,*,#385,.T.);
#575=ORIENTED_EDGE('',*,*,#417,.F.);
#576=ORIENTED_EDGE('',*,*,#383,.T.);
#577=ORIENTED_EDGE('',*,*,#387,.T.);
#578=ORIENTED_EDGE('',*,*,#390,.T.);
#579=ORIENTED_EDGE('',*,*,#393,.F.);
#580=ORIENTED_EDGE('',*,*,#396,.F.);
#581=ORIENTED_EDGE('',*,*,#399,.F.);
#582=ORIENTED_EDGE('',*,*,#402,.T.);
#583=ORIENTED_EDGE('',*,*,#405,.T.);
#584=ORIENTED_EDGE('',*,*,#408,.T.);
#585=ORIENTED_EDGE('',*,*,#411,.F.);
#586=ORIENTED_EDGE('',*,*,#414,.F.);
#587=PLANE('',#687);
#588=PLANE('',#688);
#589=PLANE('',#689);
#590=PLANE('',#690);
#591=PLANE('',#691);
#592=PLANE('',#692);
#593=PLANE('',#693);
#594=PLANE('',#694);
#595=PLANE('',#695);
#596=PLANE('',#696);
#597=PLANE('',#697);
#598=PLANE('',#698);
#599=PLANE('',#699);
#600=PLANE('',#700);
#601=PLANE('',#701);
#602=PLANE('',#702);
#603=PLANE('',#706);
#604=PLANE('',#707);
#605=PLANE('',#711);
#606=PLANE('',#712);
#607=PLANE('',#716);
#608=PLANE('',#717);
#609=PLANE('',#721);
#610=PLANE('',#722);
#611=PLANE('',#723);
#612=PLANE('',#724);
#613=PLANE('',#725);
#614=PLANE('',#726);
#615=PLANE('',#727);
#616=PLANE('',#728);
#617=PLANE('',#729);
#618=PLANE('',#730);
#619=PLANE('',#731);
#620=PLANE('',#732);
#621=PLANE('',#733);
#622=PLANE('',#734);
#623=PLANE('',#735);
#624=PLANE('',#736);
#625=ADVANCED_FACE('',(#41),#587,.T.);
#626=ADVANCED_FACE('',(#42),#588,.T.);
#627=ADVANCED_FACE('',(#43),#589,.T.);
#628=ADVANCED_FACE('',(#44),#590,.T.);
#629=ADVANCED_FACE('',(#45),#591,.T.);
#630=ADVANCED_FACE('',(#46),#592,.F.);
#631=ADVANCED_FACE('',(#47),#593,.T.);
#632=ADVANCED_FACE('',(#48),#594,.T.);
#633=ADVANCED_FACE('',(#49),#595,.T.);
#634=ADVANCED_FACE('',(#50),#596,.T.);
#635=ADVANCED_FACE('',(#51),#597,.T.);
#636=ADVANCED_FACE('',(#52),#598,.T.);
#637=ADVANCED_FACE('',(#53),#599,.T.);
#638=ADVANCED_FACE('',(#54),#600,.T.);
#639=ADVANCED_FACE('',(#55,#25),#601,.T.);
#640=ADVANCED_FACE('',(#56,#26),#602,.F.);
#641=ADVANCED_FACE('',(#57),#21,.T.);
#642=ADVANCED_FACE('',(#58),#603,.T.);
#643=ADVANCED_FACE('',(#59),#604,.F.);
#644=ADVANCED_FACE('',(#60),#22,.T.);
#645=ADVANCED_FACE('',(#61),#605,.T.);
#646=ADVANCED_FACE('',(#62),#606,.F.);
#647=ADVANCED_FACE('',(#63),#23,.T.);
#648=ADVANCED_FACE('',(#64),#607,.T.);
#649=ADVANCED_FACE('',(#65),#608,.F.);
#650=ADVANCED_FACE('',(#66),#24,.T.);
#651=ADVANCED_FACE('',(#67),#609,.T.);
#652=ADVANCED_FACE('',(#68),#610,.F.);
#653=ADVANCED_FACE('',(#69),#611,.T.);
#654=ADVANCED_FACE('',(#70),#612,.T.);
#655=ADVANCED_FACE('',(#71),#613,.T.);
#656=ADVANCED_FACE('',(#72),#614,.T.);
#657=ADVANCED_FACE('',(#73),#615,.T.);
#658=ADVANCED_FACE('',(#74),#616,.T.);
#659=ADVANCED_FACE('',(#75),#617,.T.);
#660=ADVANCED_FACE('',(#76),#618,.T.);
#661=ADVANCED_FACE('',(#77),#619,.T.);
#662=ADVANCED_FACE('',(#78),#620,.T.);
#663=ADVANCED_FACE('',(#79),#621,.T.);
#664=ADVANCED_FACE('',(#80),#622,.T.);
#665=ADVANCED_FACE('',(#81),#623,.T.);
#666=ADVANCED_FACE('',(#82),#624,.F.);
#667=CLOSED_SHELL('',(#625,#626,#627,#628,#629,#630));
#668=CLOSED_SHELL('',(#631,#632,#633,#634,#635,#636,#637,#638,#639,#640));
#669=CLOSED_SHELL('',(#641,#642,#643));
#670=CLOSED_SHELL('',(#644,#645,#646));
#671=CLOSED_SHELL('',(#647,#648,#649));
#672=CLOSED_SHELL('',(#650,#651,#652));
#673=CLOSED_SHELL('',(#653,#654,#655,#656,#657,#658,#659,#660,#661,#662,
#663,#664,#665,#666));
#674=DERIVED_UNIT_ELEMENT(#676,1.);
#675=DERIVED_UNIT_ELEMENT(#1103,-3.);
#676=(
MASS_UNIT()
NAMED_UNIT(*)
SI_UNIT(.KILO.,.GRAM.)
);
#677=DERIVED_UNIT((#674,#675));
#678=MEASURE_REPRESENTATION_ITEM('density measure',
POSITIVE_RATIO_MEASURE(7850.),#677);
#679=PROPERTY_DEFINITION_REPRESENTATION(#684,#681);
#680=PROPERTY_DEFINITION_REPRESENTATION(#685,#682);
#681=REPRESENTATION('material name',(#683),#1100);
#682=REPRESENTATION('density',(#678),#1100);
#683=DESCRIPTIVE_REPRESENTATION_ITEM('Steel','Steel');
#684=PROPERTY_DEFINITION('material property','material name',#1110);
#685=PROPERTY_DEFINITION('material property','density of part',#1110);
#686=AXIS2_PLACEMENT_3D('',#915,#737,#738);
#687=AXIS2_PLACEMENT_3D('',#916,#739,#740);
#688=AXIS2_PLACEMENT_3D('',#925,#745,#746);
#689=AXIS2_PLACEMENT_3D('',#931,#750,#751);
#690=AXIS2_PLACEMENT_3D('',#937,#755,#756);
#691=AXIS2_PLACEMENT_3D('',#940,#759,#760);
#692=AXIS2_PLACEMENT_3D('',#941,#761,#762);
#693=AXIS2_PLACEMENT_3D('',#942,#763,#764);
#694=AXIS2_PLACEMENT_3D('',#951,#769,#770);
#695=AXIS2_PLACEMENT_3D('',#957,#774,#775);
#696=AXIS2_PLACEMENT_3D('',#963,#779,#780);
#697=AXIS2_PLACEMENT_3D('',#966,#783,#784);
#698=AXIS2_PLACEMENT_3D('',#975,#789,#790);
#699=AXIS2_PLACEMENT_3D('',#981,#794,#795);
#700=AXIS2_PLACEMENT_3D('',#987,#799,#800);
#701=AXIS2_PLACEMENT_3D('',#990,#803,#804);
#702=AXIS2_PLACEMENT_3D('',#991,#805,#806);
#703=AXIS2_PLACEMENT_3D('',#992,#807,#808);
#704=AXIS2_PLACEMENT_3D('',#994,#809,#810);
#705=AXIS2_PLACEMENT_3D('',#997,#812,#813);
#706=AXIS2_PLACEMENT_3D('',#998,#814,#815);
#707=AXIS2_PLACEMENT_3D('',#999,#816,#817);
#708=AXIS2_PLACEMENT_3D('',#1000,#818,#819);
#709=AXIS2_PLACEMENT_3D('',#1002,#820,#821);
#710=AXIS2_PLACEMENT_3D('',#1005,#823,#824);
#711=AXIS2_PLACEMENT_3D('',#1006,#825,#826);
#712=AXIS2_PLACEMENT_3D('',#1007,#827,#828);
#713=AXIS2_PLACEMENT_3D('',#1008,#829,#830);
#714=AXIS2_PLACEMENT_3D('',#1010,#831,#832);
#715=AXIS2_PLACEMENT_3D('',#1013,#834,#835);
#716=AXIS2_PLACEMENT_3D('',#1014,#836,#837);
#717=AXIS2_PLACEMENT_3D('',#1015,#838,#839);
#718=AXIS2_PLACEMENT_3D('',#1016,#840,#841);
#719=AXIS2_PLACEMENT_3D('',#1018,#842,#843);
#720=AXIS2_PLACEMENT_3D('',#1021,#845,#846);
#721=AXIS2_PLACEMENT_3D('',#1022,#847,#848);
#722=AXIS2_PLACEMENT_3D('',#1023,#849,#850);
#723=AXIS2_PLACEMENT_3D('',#1024,#851,#852);
#724=AXIS2_PLACEMENT_3D('',#1033,#857,#858);
#725=AXIS2_PLACEMENT_3D('',#1039,#862,#863);
#726=AXIS2_PLACEMENT_3D('',#1045,#867,#868);
#727=AXIS2_PLACEMENT_3D('',#1051,#872,#873);
#728=AXIS2_PLACEMENT_3D('',#1057,#877,#878);
#729=AXIS2_PLACEMENT_3D('',#1063,#882,#883);
#730=AXIS2_PLACEMENT_3D('',#1069,#887,#888);
#731=AXIS2_PLACEMENT_3D('',#1075,#892,#893);
#732=AXIS2_PLACEMENT_3D('',#1081,#897,#898);
#733=AXIS2_PLACEMENT_3D('',#1087,#902,#903);
#734=AXIS2_PLACEMENT_3D('',#1093,#907,#908);
#735=AXIS2_PLACEMENT_3D('',#1096,#911,#912);
#736=AXIS2_PLACEMENT_3D('',#1097,#913,#914);
#737=DIRECTION('axis',(0.,0.,1.));
#738=DIRECTION('refdir',(1.,0.,0.));
#739=DIRECTION('center_axis',(0.,-1.,0.));
#740=DIRECTION('ref_axis',(1.,0.,0.));
#741=DIRECTION('',(1.,0.,0.));
#742=DIRECTION('',(0.,0.,1.));
#743=DIRECTION('',(1.,0.,0.));
#744=DIRECTION('',(0.,0.,1.));
#745=DIRECTION('center_axis',(-1.,0.,0.));
#746=DIRECTION('ref_axis',(0.,-1.,0.));
#747=DIRECTION('',(0.,-1.,0.));
#748=DIRECTION('',(0.,-1.,0.));
#749=DIRECTION('',(0.,0.,1.));
#750=DIRECTION('center_axis',(0.,1.,0.));
#751=DIRECTION('ref_axis',(-1.,0.,0.));
#752=DIRECTION('',(-1.,0.,0.));
#753=DIRECTION('',(-1.,0.,0.));
#754=DIRECTION('',(0.,0.,1.));
#755=DIRECTION('center_axis',(1.,0.,0.));
#756=DIRECTION('ref_axis',(0.,1.,0.));
#757=DIRECTION('',(0.,1.,0.));
#758=DIRECTION('',(0.,1.,0.));
#759=DIRECTION('center_axis',(0.,0.,1.));
#760=DIRECTION('ref_axis',(1.,0.,0.));
#761=DIRECTION('center_axis',(0.,0.,1.));
#762=DIRECTION('ref_axis',(1.,0.,0.));
#763=DIRECTION('center_axis',(1.,0.,0.));
#764=DIRECTION('ref_axis',(0.,1.,0.));
#765=DIRECTION('',(0.,1.,0.));
#766=DIRECTION('',(0.,0.,1.));
#767=DIRECTION('',(0.,1.,0.));
#768=DIRECTION('',(0.,0.,1.));
#769=DIRECTION('center_axis',(0.,1.,0.));
#770=DIRECTION('ref_axis',(-1.,0.,0.));
#771=DIRECTION('',(-1.,0.,0.));
#772=DIRECTION('',(-1.,0.,0.));
#773=DIRECTION('',(0.,0.,1.));
#774=DIRECTION('center_axis',(-1.,0.,0.));
#775=DIRECTION('ref_axis',(0.,-1.,0.));
#776=DIRECTION('',(0.,-1.,0.));
#777=DIRECTION('',(0.,-1.,0.));
#778=DIRECTION('',(0.,0.,1.));
#779=DIRECTION('center_axis',(0.,-1.,0.));
#780=DIRECTION('ref_axis',(1.,0.,0.));
#781=DIRECTION('',(1.,0.,0.));
#782=DIRECTION('',(1.,0.,0.));
#783=DIRECTION('center_axis',(0.,-1.,0.));
#784=DIRECTION('ref_axis',(1.,0.,0.));
#785=DIRECTION('',(1.,0.,0.));
#786=DIRECTION('',(0.,0.,1.));
#787=DIRECTION('',(1.,0.,0.));
#788=DIRECTION('',(0.,0.,1.));
#789=DIRECTION('center_axis',(-1.,0.,0.));
#790=DIRECTION('ref_axis',(0.,-1.,0.));
#791=DIRECTION('',(0.,-1.,0.));
#792=DIRECTION('',(0.,-1.,0.));
#793=DIRECTION('',(0.,0.,1.));
#794=DIRECTION('center_axis',(0.,1.,0.));
#795=DIRECTION('ref_axis',(-1.,0.,0.));
#796=DIRECTION('',(-1.,0.,0.));
#797=DIRECTION('',(-1.,0.,0.));
#798=DIRECTION('',(0.,0.,1.));
#799=DIRECTION('center_axis',(1.,0.,0.));
#800=DIRECTION('ref_axis',(0.,1.,0.));
#801=DIRECTION('',(0.,1.,0.));
#802=DIRECTION('',(0.,1.,0.));
#803=DIRECTION('center_axis',(0.,0.,1.));
#804=DIRECTION('ref_axis',(1.,0.,0.));
#805=DIRECTION('center_axis',(0.,0.,1.));
#806=DIRECTION('ref_axis',(-1.,0.,0.));
#807=DIRECTION('center_axis',(0.,0.,1.));
#808=DIRECTION('ref_axis',(-1.,0.,0.));
#809=DIRECTION('center_axis',(0.,0.,1.));
#810=DIRECTION('ref_axis',(-1.,0.,0.));
#811=DIRECTION('',(0.,0.,-1.));
#812=DIRECTION('center_axis',(0.,0.,1.));
#813=DIRECTION('ref_axis',(-1.,0.,0.));
#814=DIRECTION('center_axis',(0.,0.,1.));
#815=DIRECTION('ref_axis',(-1.,0.,0.));
#816=DIRECTION('center_axis',(0.,0.,1.));
#817=DIRECTION('ref_axis',(-1.,0.,0.));
#818=DIRECTION('center_axis',(0.,0.,1.));
#819=DIRECTION('ref_axis',(-1.,0.,0.));
#820=DIRECTION('center_axis',(0.,0.,1.));
#821=DIRECTION('ref_axis',(-1.,0.,0.));
#822=DIRECTION('',(0.,0.,-1.));
#823=DIRECTION('center_axis',(0.,0.,1.));
#824=DIRECTION('ref_axis',(-1.,0.,0.));
#825=DIRECTION('center_axis',(0.,0.,1.));
#826=DIRECTION('ref_axis',(-1.,0.,0.));
#827=DIRECTION('center_axis',(0.,0.,1.));
#828=DIRECTION('ref_axis',(-1.,0.,0.));
#829=DIRECTION('center_axis',(0.,0.,1.));
#830=DIRECTION('ref_axis',(-1.,0.,0.));
#831=DIRECTION('center_axis',(0.,0.,1.));
#832=DIRECTION('ref_axis',(-1.,0.,0.));
#833=DIRECTION('',(0.,0.,-1.));
#834=DIRECTION('center_axis',(0.,0.,1.));
#835=DIRECTION('ref_axis',(-1.,0.,0.));
#836=DIRECTION('center_axis',(0.,0.,1.));
#837=DIRECTION('ref_axis',(-1.,0.,0.));
#838=DIRECTION('center_axis',(0.,0.,1.));
#839=DIRECTION('ref_axis',(-1.,0.,0.));
#840=DIRECTION('center_axis',(0.,0.,1.));
#841=DIRECTION('ref_axis',(-1.,0.,0.));
#842=DIRECTION('center_axis',(0.,0.,1.));
#843=DIRECTION('ref_axis',(-1.,0.,0.));
#844=DIRECTION('',(0.,0.,-1.));
#845=DIRECTION('center_axis',(0.,0.,1.));
#846=DIRECTION('ref_axis',(-1.,0.,0.));
#847=DIRECTION('center_axis',(0.,0.,1.));
#848=DIRECTION('ref_axis',(-1.,0.,0.));
#849=DIRECTION('center_axis',(0.,0.,1.));
#850=DIRECTION('ref_axis',(-1.,0.,0.));
#851=DIRECTION('center_axis',(0.,-1.,0.));
#852=DIRECTION('ref_axis',(1.,0.,0.));
#853=DIRECTION('',(-1.,0.,0.));
#854=DIRECTION('',(0.,0.,1.));
#855=DIRECTION('',(1.,0.,0.));
#856=DIRECTION('',(0.,0.,1.));
#857=DIRECTION('center_axis',(-1.,0.,0.));
#858=DIRECTION('ref_axis',(0.,-1.,0.));
#859=DIRECTION('',(0.,1.,0.));
#860=DIRECTION('',(0.,-1.,0.));
#861=DIRECTION('',(0.,0.,1.));
#862=DIRECTION('center_axis',(0.,1.,0.));
#863=DIRECTION('ref_axis',(-1.,0.,0.));
#864=DIRECTION('',(1.,0.,0.));
#865=DIRECTION('',(-1.,0.,0.));
#866=DIRECTION('',(0.,0.,1.));
#867=DIRECTION('center_axis',(-1.,0.,0.));
#868=DIRECTION('ref_axis',(0.,-1.,0.));
#869=DIRECTION('',(0.,-1.,0.));
#870=DIRECTION('',(0.,-1.,0.));
#871=DIRECTION('',(0.,0.,1.));
#872=DIRECTION('center_axis',(0.,1.,0.));
#873=DIRECTION('ref_axis',(-1.,0.,0.));
#874=DIRECTION('',(-1.,0.,0.));
#875=DIRECTION('',(-1.,0.,0.));
#876=DIRECTION('',(0.,0.,1.));
#877=DIRECTION('center_axis',(1.,0.,0.));
#878=DIRECTION('ref_axis',(0.,1.,0.));
#879=DIRECTION('',(0.,1.,0.));
#880=DIRECTION('',(0.,1.,0.));
#881=DIRECTION('',(0.,0.,1.));
#882=DIRECTION('center_axis',(0.,1.,0.));
#883=DIRECTION('ref_axis',(-1.,0.,0.));
#884=DIRECTION('',(1.,0.,0.));
#885=DIRECTION('',(-1.,0.,0.));
#886=DIRECTION('',(0.,0.,1.));
#887=DIRECTION('center_axis',(1.,0.,0.));
#888=DIRECTION('ref_axis',(0.,1.,0.));
#889=DIRECTION('',(0.,-1.,0.));
#890=DIRECTION('',(0.,1.,0.));
#891=DIRECTION('',(0.,0.,1.));
#892=DIRECTION('center_axis',(0.,-1.,0.));
#893=DIRECTION('ref_axis',(1.,0.,0.));
#894=DIRECTION('',(-1.,0.,0.));
#895=DIRECTION('',(1.,0.,0.));
#896=DIRECTION('',(0.,0.,1.));
#897=DIRECTION('center_axis',(1.,0.,0.));
#898=DIRECTION('ref_axis',(0.,1.,0.));
#899=DIRECTION('',(0.,1.,0.));
#900=DIRECTION('',(0.,1.,0.));
#901=DIRECTION('',(0.,0.,1.));
#902=DIRECTION('center_axis',(0.,-1.,0.));
#903=DIRECTION('ref_axis',(1.,0.,0.));
#904=DIRECTION('',(1.,0.,0.));
#905=DIRECTION('',(1.,0.,0.));
#906=DIRECTION('',(0.,0.,1.));
#907=DIRECTION('center_axis',(-1.,0.,0.));
#908=DIRECTION('ref_axis',(0.,-1.,0.));
#909=DIRECTION('',(0.,-1.,0.));
#910=DIRECTION('',(0.,-1.,0.));
#911=DIRECTION('center_axis',(0.,0.,1.));
#912=DIRECTION('ref_axis',(1.,0.,0.));
#913=DIRECTION('center_axis',(0.,0.,1.));
#914=DIRECTION('ref_axis',(1.,0.,0.));
#915=CARTESIAN_POINT('',(0.,0.,0.));
#916=CARTESIAN_POINT('Origin',(-27.,-27.,0.));
#917=CARTESIAN_POINT('',(-27.,-27.,0.));
#918=CARTESIAN_POINT('',(27.,-27.,0.));
#919=CARTESIAN_POINT('',(-27.,-27.,0.));
#920=CARTESIAN_POINT('',(27.,-27.,3.));
#921=CARTESIAN_POINT('',(27.,-27.,0.));
#922=CARTESIAN_POINT('',(-27.,-27.,3.));
#923=CARTESIAN_POINT('',(-27.,-27.,3.));
#924=CARTESIAN_POINT('',(-27.,-27.,0.));
#925=CARTESIAN_POINT('Origin',(-27.,27.,0.));
#926=CARTESIAN_POINT('',(-27.,27.,0.));
#927=CARTESIAN_POINT('',(-27.,27.,0.));
#928=CARTESIAN_POINT('',(-27.,27.,3.));
#929=CARTESIAN_POINT('',(-27.,27.,3.));
#930=CARTESIAN_POINT('',(-27.,27.,0.));
#931=CARTESIAN_POINT('Origin',(27.,27.,0.));
#932=CARTESIAN_POINT('',(27.,27.,0.));
#933=CARTESIAN_POINT('',(27.,27.,0.));
#934=CARTESIAN_POINT('',(27.,27.,3.));
#935=CARTESIAN_POINT('',(27.,27.,3.));
#936=CARTESIAN_POINT('',(27.,27.,0.));
#937=CARTESIAN_POINT('Origin',(27.,-27.,0.));
#938=CARTESIAN_POINT('',(27.,-27.,0.));
#939=CARTESIAN_POINT('',(27.,-27.,3.));
#940=CARTESIAN_POINT('Origin',(0.,0.,3.));
#941=CARTESIAN_POINT('Origin',(0.,0.,0.));
#942=CARTESIAN_POINT('Origin',(-25.,-25.,3.));
#943=CARTESIAN_POINT('',(-25.,-25.,3.));
#944=CARTESIAN_POINT('',(-25.,25.,3.));
#945=CARTESIAN_POINT('',(-25.,-25.,3.));
#946=CARTESIAN_POINT('',(-25.,25.,73.));
#947=CARTESIAN_POINT('',(-25.,25.,3.));
#948=CARTESIAN_POINT('',(-25.,-25.,73.));
#949=CARTESIAN_POINT('',(-25.,-25.,73.));
#950=CARTESIAN_POINT('',(-25.,-25.,3.));
#951=CARTESIAN_POINT('Origin',(25.,-25.,3.));
#952=CARTESIAN_POINT('',(25.,-25.,3.));
#953=CARTESIAN_POINT('',(25.,-25.,3.));
#954=CARTESIAN_POINT('',(25.,-25.,73.));
#955=CARTESIAN_POINT('',(25.,-25.,73.));
#956=CARTESIAN_POINT('',(25.,-25.,3.));
#957=CARTESIAN_POINT('Origin',(25.,25.,3.));
#958=CARTESIAN_POINT('',(25.,25.,3.));
#959=CARTESIAN_POINT('',(25.,25.,3.));
#960=CARTESIAN_POINT('',(25.,25.,73.));
#961=CARTESIAN_POINT('',(25.,25.,73.));
#962=CARTESIAN_POINT('',(25.,25.,3.));
#963=CARTESIAN_POINT('Origin',(-25.,25.,3.));
#964=CARTESIAN_POINT('',(-25.,25.,3.));
#965=CARTESIAN_POINT('',(-25.,25.,73.));
#966=CARTESIAN_POINT('Origin',(-27.,-27.,3.));
#967=CARTESIAN_POINT('',(-27.,-27.,3.));
#968=CARTESIAN_POINT('',(27.,-27.,3.));
#969=CARTESIAN_POINT('',(-27.,-27.,3.));
#970=CARTESIAN_POINT('',(27.,-27.,73.));
#971=CARTESIAN_POINT('',(27.,-27.,3.));
#972=CARTESIAN_POINT('',(-27.,-27.,73.));
#973=CARTESIAN_POINT('',(-27.,-27.,73.));
#974=CARTESIAN_POINT('',(-27.,-27.,3.));
#975=CARTESIAN_POINT('Origin',(-27.,27.,3.));
#976=CARTESIAN_POINT('',(-27.,27.,3.));
#977=CARTESIAN_POINT('',(-27.,27.,3.));
#978=CARTESIAN_POINT('',(-27.,27.,73.));
#979=CARTESIAN_POINT('',(-27.,27.,73.));
#980=CARTESIAN_POINT('',(-27.,27.,3.));
#981=CARTESIAN_POINT('Origin',(27.,27.,3.));
#982=CARTESIAN_POINT('',(27.,27.,3.));
#983=CARTESIAN_POINT('',(27.,27.,3.));
#984=CARTESIAN_POINT('',(27.,27.,73.));
#985=CARTESIAN_POINT('',(27.,27.,73.));
#986=CARTESIAN_POINT('',(27.,27.,3.));
#987=CARTESIAN_POINT('Origin',(27.,-27.,3.));
#988=CARTESIAN_POINT('',(27.,-27.,3.));
#989=CARTESIAN_POINT('',(27.,-27.,73.));
#990=CARTESIAN_POINT('Origin',(0.,0.,73.));
#991=CARTESIAN_POINT('Origin',(0.,0.,3.));
#992=CARTESIAN_POINT('Origin',(12.5,12.5,3.));
#993=CARTESIAN_POINT('',(23.,12.5,73.));
#994=CARTESIAN_POINT('Origin',(12.5,12.5,73.));
#995=CARTESIAN_POINT('',(23.,12.5,3.));
#996=CARTESIAN_POINT('',(23.,12.5,3.));
#997=CARTESIAN_POINT('Origin',(12.5,12.5,3.));
#998=CARTESIAN_POINT('Origin',(12.5,12.5,73.));
#999=CARTESIAN_POINT('Origin',(12.5,12.5,3.));
#1000=CARTESIAN_POINT('Origin',(-12.5,-12.5,3.));
#1001=CARTESIAN_POINT('',(-2.,-12.5,73.));
#1002=CARTESIAN_POINT('Origin',(-12.5,-12.5,73.));
#1003=CARTESIAN_POINT('',(-2.,-12.5,3.));
#1004=CARTESIAN_POINT('',(-2.,-12.5,3.));
#1005=CARTESIAN_POINT('Origin',(-12.5,-12.5,3.));
#1006=CARTESIAN_POINT('Origin',(-12.5,-12.5,73.));
#1007=CARTESIAN_POINT('Origin',(-12.5,-12.5,3.));
#1008=CARTESIAN_POINT('Origin',(-12.5,12.5,3.));
#1009=CARTESIAN_POINT('',(-2.,12.5,73.));
#1010=CARTESIAN_POINT('Origin',(-12.5,12.5,73.));
#1011=CARTESIAN_POINT('',(-2.,12.5,3.));
#1012=CARTESIAN_POINT('',(-2.,12.5,3.));
#1013=CARTESIAN_POINT('Origin',(-12.5,12.5,3.));
#1014=CARTESIAN_POINT('Origin',(-12.5,12.5,73.));
#1015=CARTESIAN_POINT('Origin',(-12.5,12.5,3.));
#1016=CARTESIAN_POINT('Origin',(12.5,-12.5,3.));
#1017=CARTESIAN_POINT('',(23.,-12.5,73.));
#1018=CARTESIAN_POINT('Origin',(12.5,-12.5,73.));
#1019=CARTESIAN_POINT('',(23.,-12.5,3.));
#1020=CARTESIAN_POINT('',(23.,-12.5,3.));
#1021=CARTESIAN_POINT('Origin',(12.5,-12.5,3.));
#1022=CARTESIAN_POINT('Origin',(12.5,-12.5,73.));
#1023=CARTESIAN_POINT('Origin',(12.5,-12.5,3.));
#1024=CARTESIAN_POINT('Origin',(-35.0000005215406,-5.00000007450581,73.));
#1025=CARTESIAN_POINT('',(-25.000000372529,-5.00000007450581,73.));
#1026=CARTESIAN_POINT('',(-35.0000005215406,-5.00000007450581,73.));
#1027=CARTESIAN_POINT('',(-25.000000372529,-5.00000007450581,73.));
#1028=CARTESIAN_POINT('',(-25.000000372529,-5.00000007450581,74.));
#1029=CARTESIAN_POINT('',(-25.000000372529,-5.00000007450581,73.));
#1030=CARTESIAN_POINT('',(-35.0000005215406,-5.00000007450581,74.));
#1031=CARTESIAN_POINT('',(-25.000000372529,-5.00000007450581,74.));
#1032=CARTESIAN_POINT('',(-35.0000005215406,-5.00000007450581,73.));
#1033=CARTESIAN_POINT('Origin',(-35.0000005215406,5.00000007450581,73.));
#1034=CARTESIAN_POINT('',(-35.0000005215406,5.00000007450581,73.));
#1035=CARTESIAN_POINT('',(-35.0000005215406,-5.00000007450581,73.));
#1036=CARTESIAN_POINT('',(-35.0000005215406,5.00000007450581,74.));
#1037=CARTESIAN_POINT('',(-35.0000005215406,-5.00000007450581,74.));
#1038=CARTESIAN_POINT('',(-35.0000005215406,5.00000007450581,73.));
#1039=CARTESIAN_POINT('Origin',(-25.000000372529,5.00000007450581,73.));
#1040=CARTESIAN_POINT('',(-25.000000372529,5.00000007450581,73.));
#1041=CARTESIAN_POINT('',(-35.0000005215406,5.00000007450581,73.));
#1042=CARTESIAN_POINT('',(-25.000000372529,5.00000007450581,74.));
#1043=CARTESIAN_POINT('',(-35.0000005215406,5.00000007450581,74.));
#1044=CARTESIAN_POINT('',(-25.000000372529,5.00000007450581,73.));
#1045=CARTESIAN_POINT('Origin',(-25.000000372529,25.000000372529,73.));
#1046=CARTESIAN_POINT('',(-25.000000372529,25.000000372529,73.));
#1047=CARTESIAN_POINT('',(-25.000000372529,25.000000372529,73.));
#1048=CARTESIAN_POINT('',(-25.000000372529,25.000000372529,74.));
#1049=CARTESIAN_POINT('',(-25.000000372529,25.000000372529,74.));
#1050=CARTESIAN_POINT('',(-25.000000372529,25.000000372529,73.));
#1051=CARTESIAN_POINT('Origin',(25.000000372529,25.000000372529,73.));
#1052=CARTESIAN_POINT('',(25.000000372529,25.000000372529,73.));
#1053=CARTESIAN_POINT('',(25.000000372529,25.000000372529,73.));
#1054=CARTESIAN_POINT('',(25.000000372529,25.000000372529,74.));
#1055=CARTESIAN_POINT('',(25.000000372529,25.000000372529,74.));
#1056=CARTESIAN_POINT('',(25.000000372529,25.000000372529,73.));
#1057=CARTESIAN_POINT('Origin',(25.000000372529,5.00000007450581,73.));
#1058=CARTESIAN_POINT('',(25.000000372529,5.00000007450581,73.));
#1059=CARTESIAN_POINT('',(25.000000372529,5.00000007450581,73.));
#1060=CARTESIAN_POINT('',(25.000000372529,5.00000007450581,74.));
#1061=CARTESIAN_POINT('',(25.000000372529,5.00000007450581,74.));
#1062=CARTESIAN_POINT('',(25.000000372529,5.00000007450581,73.));
#1063=CARTESIAN_POINT('Origin',(35.0000005215406,5.00000007450581,73.));
#1064=CARTESIAN_POINT('',(35.0000005215406,5.00000007450581,73.));
#1065=CARTESIAN_POINT('',(25.000000372529,5.00000007450581,73.));
#1066=CARTESIAN_POINT('',(35.0000005215406,5.00000007450581,74.));
#1067=CARTESIAN_POINT('',(25.000000372529,5.00000007450581,74.));
#1068=CARTESIAN_POINT('',(35.0000005215406,5.00000007450581,73.));
#1069=CARTESIAN_POINT('Origin',(35.0000005215406,-5.00000007450581,73.));
#1070=CARTESIAN_POINT('',(35.0000005215406,-5.00000007450581,73.));
#1071=CARTESIAN_POINT('',(35.0000005215406,5.00000007450581,73.));
#1072=CARTESIAN_POINT('',(35.0000005215406,-5.00000007450581,74.));
#1073=CARTESIAN_POINT('',(35.0000005215406,5.00000007450581,74.));
#1074=CARTESIAN_POINT('',(35.0000005215406,-5.00000007450581,73.));
#1075=CARTESIAN_POINT('Origin',(25.000000372529,-5.00000007450581,73.));
#1076=CARTESIAN_POINT('',(25.000000372529,-5.00000007450581,73.));
#1077=CARTESIAN_POINT('',(35.0000005215406,-5.00000007450581,73.));
#1078=CARTESIAN_POINT('',(25.000000372529,-5.00000007450581,74.));
#1079=CARTESIAN_POINT('',(35.0000005215406,-5.00000007450581,74.));
#1080=CARTESIAN_POINT('',(25.000000372529,-5.00000007450581,73.));
#1081=CARTESIAN_POINT('Origin',(25.000000372529,-25.000000372529,73.));
#1082=CARTESIAN_POINT('',(25.000000372529,-25.000000372529,73.));
#1083=CARTESIAN_POINT('',(25.000000372529,-25.000000372529,73.));
#1084=CARTESIAN_POINT('',(25.000000372529,-25.000000372529,74.));
#1085=CARTESIAN_POINT('',(25.000000372529,-25.000000372529,74.));
#1086=CARTESIAN_POINT('',(25.000000372529,-25.000000372529,73.));
#1087=CARTESIAN_POINT('Origin',(-25.000000372529,-25.000000372529,73.));
#1088=CARTESIAN_POINT('',(-25.000000372529,-25.000000372529,73.));
#1089=CARTESIAN_POINT('',(-25.000000372529,-25.000000372529,73.));
#1090=CARTESIAN_POINT('',(-25.000000372529,-25.000000372529,74.));
#1091=CARTESIAN_POINT('',(-25.000000372529,-25.000000372529,74.));
#1092=CARTESIAN_POINT('',(-25.000000372529,-25.000000372529,73.));
#1093=CARTESIAN_POINT('Origin',(-25.000000372529,-5.00000007450581,73.));
#1094=CARTESIAN_POINT('',(-25.000000372529,-5.00000007450581,73.));
#1095=CARTESIAN_POINT('',(-25.000000372529,-5.00000007450581,74.));
#1096=CARTESIAN_POINT('Origin',(0.,0.,74.));
#1097=CARTESIAN_POINT('Origin',(0.,0.,73.));
#1098=UNCERTAINTY_MEASURE_WITH_UNIT(LENGTH_MEASURE(0.01),#1102,
'DISTANCE_ACCURACY_VALUE',
'Maximum model space distance between geometric entities at asserted c
onnectivities');
#1099=UNCERTAINTY_MEASURE_WITH_UNIT(LENGTH_MEASURE(0.01),#1102,
'DISTANCE_ACCURACY_VALUE',
'Maximum model space distance between geometric entities at asserted c
onnectivities');
#1100=(
GEOMETRIC_REPRESENTATION_CONTEXT(3)
GLOBAL_UNCERTAINTY_ASSIGNED_CONTEXT((#1098))
GLOBAL_UNIT_ASSIGNED_CONTEXT((#1102,#1104,#1105))
REPRESENTATION_CONTEXT('','3D')
);
#1101=(
GEOMETRIC_REPRESENTATION_CONTEXT(3)
GLOBAL_UNCERTAINTY_ASSIGNED_CONTEXT((#1099))
GLOBAL_UNIT_ASSIGNED_CONTEXT((#1102,#1104,#1105))
REPRESENTATION_CONTEXT('','3D')
);
#1102=(
LENGTH_UNIT()
NAMED_UNIT(*)
SI_UNIT(.MILLI.,.METRE.)
);
#1103=(
LENGTH_UNIT()
NAMED_UNIT(*)
SI_UNIT($,.METRE.)
);
#1104=(
NAMED_UNIT(*)
PLANE_ANGLE_UNIT()
SI_UNIT($,.RADIAN.)
);
#1105=(
NAMED_UNIT(*)
SI_UNIT($,.STERADIAN.)
SOLID_ANGLE_UNIT()
);
#1106=SHAPE_DEFINITION_REPRESENTATION(#1107,#1108);
#1107=PRODUCT_DEFINITION_SHAPE('',$,#1110);
#1108=SHAPE_REPRESENTATION('',(#686),#1100);
#1109=PRODUCT_DEFINITION_CONTEXT('part definition',#1114,'design');
#1110=PRODUCT_DEFINITION('2026-08-31-19-49-30-799','battery_module_v1',
#1111,#1109);
#1111=PRODUCT_DEFINITION_FORMATION('',$,#1116);
#1112=PRODUCT_RELATED_PRODUCT_CATEGORY('battery_module_v1',
'battery_module_v1',(#1116));
#1113=APPLICATION_PROTOCOL_DEFINITION('international standard',
'automotive_design',2009,#1114);
#1114=APPLICATION_CONTEXT(
'Core Data for Automotive Mechanical Design Process');
#1115=PRODUCT_CONTEXT('part definition',#1114,'mechanical');
#1116=PRODUCT('2026-08-31-19-49-30-799','battery_module_v1',$,(#1115));
#1117=PRESENTATION_STYLE_ASSIGNMENT((#1118));
#1118=SURFACE_STYLE_USAGE(.BOTH.,#1119);
#1119=SURFACE_SIDE_STYLE('',(#1120));
#1120=SURFACE_STYLE_FILL_AREA(#1121);
#1121=FILL_AREA_STYLE('Steel - Satin',(#1122));
#1122=FILL_AREA_STYLE_COLOUR('Steel - Satin',#1123);
#1123=COLOUR_RGB('Steel - Satin',0.627450980392157,0.627450980392157,0.627450980392157);
ENDSEC;
END-ISO-10303-21;
